HIERARCHY
ROOT Model_Hips
{
	OFFSET 0.000000 96.915077 0.000000
	CHANNELS 6 Xposition Yposition Zposition Xrotation Yrotation Zrotation
	JOINT Model_Spine
	{
		OFFSET 0.000000 11.137703 -1.289900
		CHANNELS 3 Xrotation Yrotation Zrotation
		JOINT Model_Spine1
		{
			OFFSET 0.000000 12.993942 -1.504922
			CHANNELS 3 Xrotation Yrotation Zrotation
			JOINT Model_Spine2
			{
				OFFSET 0.000000 14.850220 -1.719911
				CHANNELS 3 Xrotation Yrotation Zrotation
				JOINT Model_Neck
				{
					OFFSET 0.000000 16.706543 -1.934903
					CHANNELS 3 Xrotation Yrotation Zrotation
					JOINT Model_Head
					{
						OFFSET 0.000000 10.471298 2.002100
						CHANNELS 3 Xrotation Yrotation Zrotation
						JOINT Model_HeadTop_End
						{
							OFFSET 0.000000 20.842606 3.985100
							CHANNELS 3 Xrotation Yrotation Zrotation
							End Site
							{
								OFFSET 0.000000 21.220154 0.000000
							}
						}
					}
				}
				JOINT Model_LeftShoulder
				{
					OFFSET 7.008500 14.768600 -1.919946
					CHANNELS 3 Xrotation Yrotation Zrotation
					JOINT Model_LeftArm
					{
						OFFSET 14.126271 -3.718048 0.029937
						CHANNELS 3 Xrotation Yrotation Zrotation
						JOINT Model_LeftForeArm
						{
							OFFSET 28.282801 0.000000 0.000000
							CHANNELS 3 Xrotation Yrotation Zrotation
							JOINT Model_LeftHand
							{
								OFFSET 26.204689 0.000000 0.000000
								CHANNELS 3 Xrotation Yrotation Zrotation
								End Site
								{
									OFFSET 26.204704 0.000000 0.000000
								}
							}
						}
					}
				}
				JOINT Model_RightShoulder
				{
					OFFSET -7.008500 14.768555 -1.949840
					CHANNELS 3 Xrotation Yrotation Zrotation
					JOINT Model_RightArm
					{
						OFFSET -14.126281 -3.718018 -0.029932
						CHANNELS 3 Xrotation Yrotation Zrotation
						JOINT Model_RightForeArm
						{
							OFFSET -28.283798 0.000000 -0.000001
							CHANNELS 3 Xrotation Yrotation Zrotation
							JOINT Model_RightHand
							{
								OFFSET -26.204193 0.000000 -0.000001
								CHANNELS 3 Xrotation Yrotation Zrotation
								End Site
								{
									OFFSET -26.204208 0.000000 -0.000001
								}
							}
						}
					}
				}
			}
		}
	}
	JOINT Model_LeftUpLeg
	{
		OFFSET 8.327700 -6.193199 -0.402800
		CHANNELS 3 Xrotation Yrotation Zrotation
		JOINT Model_LeftLeg
		{
			OFFSET 0.735802 -42.108742 -0.610721
			CHANNELS 3 Xrotation Yrotation Zrotation
			JOINT Model_LeftFoot
			{
				OFFSET -0.735806 -36.833748 -0.172876
				CHANNELS 3 Xrotation Yrotation Zrotation
				JOINT Model_LeftToeBase
				{
					OFFSET -0.565857 -11.977769 16.297714
					CHANNELS 3 Xrotation Yrotation Zrotation
					JOINT Model_LeftToe_End
					{
						OFFSET -0.111712 -0.312793 7.857784
						CHANNELS 3 Xrotation Yrotation Zrotation
						End Site
						{
							OFFSET -0.111712 -0.312793 7.857784
						}
					}
				}
			}
		}
	}
	JOINT Model_RightUpLeg
	{
		OFFSET -8.327700 -6.193199 -0.516500
		CHANNELS 3 Xrotation Yrotation Zrotation
		JOINT Model_RightLeg
		{
			OFFSET -0.735785 -42.108738 -0.434061
			CHANNELS 3 Xrotation Yrotation Zrotation
			JOINT Model_RightFoot
			{
				OFFSET 0.735776 -36.833748 -0.021630
				CHANNELS 3 Xrotation Yrotation Zrotation
				JOINT Model_RightToeBase
				{
					OFFSET 0.565817 -11.977745 15.903093
					CHANNELS 3 Xrotation Yrotation Zrotation
					JOINT Model_RightToe_End
					{
						OFFSET 0.111702 -0.312791 7.811342
						CHANNELS 3 Xrotation Yrotation Zrotation
						End Site
						{
							OFFSET 0.111702 -0.312791 7.811342
						}
					}
				}
			}
		}
	}
}
MOTION
Frames: 5
Frame Time: 0.016667
-0.338408 94.869255 0.320906 -2.443763 -0.023373 3.716889 1.723387 -0.100330 -0.597986 3.443685 -0.243806 -0.717557 3.443687 -0.243806 -0.717557 -0.281978 0.511930 -1.242030 -0.281974 0.511930 -1.242030 0.000000 -0.000000 0.000000 0.626752 -3.035688 -20.155951 -6.823698 -19.799515 -54.203555 23.947926 -6.999504 3.478732 -0.000000 -0.000000 0.000000 0.577800 9.651126 9.869699 -1.791106 9.553060 71.203745 32.363376 4.838976 -3.602624 -0.000000 0.000000 0.000000 -7.237379 3.494954 -7.254151 25.143405 10.123587 0.156652 -15.699209 0.092611 1.168728 -0.146933 0.005750 -0.000003 0.000000 -0.000001 -0.000000 -22.711378 -5.073170 -3.271876 61.540667 -11.316671 -0.828350 -8.317548 0.598311 -5.841435 -14.754045 -2.381297 10.187967 -0.000000 0.000002 -0.000001 
-0.276155 94.952744 1.566807 -2.181997 -0.017351 3.118900 1.702730 -0.248396 -0.504764 3.403155 -0.523752 -0.594111 3.403155 -0.523752 -0.594110 -0.295339 0.525871 -1.101771 -0.295338 0.525871 -1.101771 -0.000000 -0.000000 0.000000 0.575269 -3.572586 -19.597003 -8.064953 -20.798592 -53.687876 22.872956 -7.727290 3.607410 0.000003 -0.000001 -0.000001 0.557238 9.093707 10.271229 -0.221178 7.965313 71.417387 31.565545 5.024945 -3.606074 -0.000003 0.000000 -0.000000 -6.430935 3.658986 -6.599956 24.797569 9.783418 0.139762 -16.416298 0.068708 1.088982 -0.142405 0.004122 -0.011138 0.000000 -0.000001 -0.000000 -23.478625 -5.063568 -2.010803 57.540601 -12.222741 -0.873727 -8.623032 0.537594 -5.311733 -14.075385 -2.080878 8.901906 -0.000001 0.000000 0.000000 
-0.209531 95.029999 2.796558 -1.920053 -0.010919 2.566610 1.686579 -0.396476 -0.424758 3.371568 -0.807136 -0.488183 3.371568 -0.807137 -0.488184 -0.314609 0.543847 -0.966480 -0.314615 0.543846 -0.966480 0.000000 0.000000 -0.000000 0.535609 -4.052389 -19.104507 -9.190285 -21.819830 -53.075829 21.752643 -8.541307 3.732146 0.000003 0.000001 -0.000001 0.542446 8.579718 10.646836 1.361782 6.588643 71.573593 30.654265 5.387903 -3.692030 -0.000003 -0.000000 -0.000000 -5.583202 3.760513 -6.022835 24.304554 9.531722 0.129465 -17.037611 0.045724 1.009442 -0.053950 -0.000144 0.002440 -0.000000 0.000001 0.000000 -24.329358 -4.938809 -0.805755 53.501958 -13.168826 -0.838410 -8.859088 0.509398 -5.111188 -11.156384 -1.482299 7.767743 0.000000 0.000002 0.000000 
-0.140772 95.102478 4.019580 -1.653615 -0.006412 2.060789 1.671370 -0.542767 -0.354734 3.341796 -1.090189 -0.395938 3.341795 -1.090188 -0.395938 -0.335380 0.565034 -0.837970 -0.335387 0.565036 -0.837969 0.000000 -0.000000 0.000000 0.504500 -4.487931 -18.663017 -10.228004 -22.844473 -52.412502 20.625904 -9.402070 3.839047 -0.000000 0.000000 0.000001 0.532544 8.102501 10.995312 2.954813 5.346409 71.704050 29.712576 5.850012 -3.816254 0.000000 -0.000000 -0.000000 -4.676721 3.825388 -5.515208 23.645333 9.339113 0.123060 -17.561185 0.025463 0.935072 -0.000071 -0.005146 0.000002 0.000000 -0.000002 -0.000000 -25.100781 -4.745982 0.337605 48.981821 -13.921333 -0.795178 -8.291262 0.518966 -5.316265 -7.836098 -0.948532 6.755917 0.000001 -0.000001 0.000000 
-0.074316 95.168953 5.242178 -1.377940 -0.006856 1.621758 1.654546 -0.685606 -0.296704 3.308698 -1.369377 -0.321056 3.308699 -1.369376 -0.321056 -0.354715 0.590323 -0.720812 -0.354722 0.590322 -0.720812 0.000000 0.000000 -0.000000 0.481315 -4.866418 -18.288282 -11.161173 -23.844498 -51.694471 19.516565 -10.300266 3.927279 -0.000003 -0.000000 0.000001 0.527411 7.675217 11.302001 4.556858 4.246104 71.809569 28.781283 6.401111 -3.973098 0.000003 0.000000 0.000000 -3.695891 3.854069 -5.094455 22.793846 9.204894 0.120113 -17.977922 0.010539 0.863593 -0.000084 -0.009622 0.000005 0.000000 -0.000001 -0.000000 -25.669757 -4.468592 1.375616 43.688414 -14.339685 -0.746201 -6.472784 0.551213 -5.934438 -5.788097 -0.584380 5.158625 -0.000000 0.000001 0.000000 
